<?xml version="1.0" encoding="UTF-8" standalone="no"?>
<!-- Created with Inkscape (http://www.inkscape.org/) -->

<svg
   xmlns:dc="http://purl.org/dc/elements/1.1/"
   xmlns:cc="http://creativecommons.org/ns#"
   xmlns:rdf="http://www.w3.org/1999/02/22-rdf-syntax-ns#"
   xmlns:svg="http://www.w3.org/2000/svg"
   xmlns="http://www.w3.org/2000/svg"
   xmlns:sodipodi="http://sodipodi.sourceforge.net/DTD/sodipodi-0.dtd"
   xmlns:inkscape="http://www.inkscape.org/namespaces/inkscape"
   width="491.02435"
   height="307.32248"
   id="svg2"
   version="1.1"
   inkscape:version="0.48.4 r9939"
   sodipodi:docname="topographies.svg">
  <defs
     id="defs4" />
  <sodipodi:namedview
     id="base"
     pagecolor="#ffffff"
     bordercolor="#666666"
     borderopacity="1.0"
     inkscape:pageopacity="0.0"
     inkscape:pageshadow="2"
     inkscape:zoom="1.4142136"
     inkscape:cx="144.8428"
     inkscape:cy="109.79076"
     inkscape:document-units="px"
     inkscape:current-layer="layer1"
     showgrid="false"
     inkscape:snap-bbox="true"
     inkscape:bbox-paths="true"
     inkscape:bbox-nodes="true"
     inkscape:snap-bbox-edge-midpoints="true"
     inkscape:snap-bbox-midpoints="true"
     inkscape:snap-global="false"
     inkscape:window-width="1855"
     inkscape:window-height="1176"
     inkscape:window-x="65"
     inkscape:window-y="104"
     inkscape:window-maximized="1"
     inkscape:snap-grids="true"
     fit-margin-top="0"
     fit-margin-left="0"
     fit-margin-right="0"
     fit-margin-bottom="0">
    <inkscape:grid
       type="xygrid"
       id="grid2997"
       empspacing="5"
       visible="true"
       enabled="true"
       snapvisiblegridlinesonly="true"
       originx="-4.4497475px"
       originy="-727.67473px" />
  </sodipodi:namedview>
  <metadata
     id="metadata7">
    <rdf:RDF>
      <cc:Work
         rdf:about="">
        <dc:format>image/svg+xml</dc:format>
        <dc:type
           rdf:resource="http://purl.org/dc/dcmitype/StillImage" />
        <dc:title></dc:title>
      </cc:Work>
    </rdf:RDF>
  </metadata>
  <g
     inkscape:label="Calque 1"
     inkscape:groupmode="layer"
     id="layer1"
     transform="translate(-4.4497475,-17.364965)">
    <rect
       style="fill:#e6e6e6;stroke:#000000;stroke-width:0.9388476"
       id="rect4687"
       width="490.08551"
       height="306.38364"
       x="4.9191713"
       y="17.834389" />
    <g
       id="g4693"
       transform="translate(14.882141,-11.23547)">
      <g
         transform="matrix(0.8660254,-0.5,0.5,0.8660254,21.134153,104.15813)"
         id="g4143">
        <path
           inkscape:connector-curvature="0"
           id="path3937"
           d="m 139.03125,12.875 c 0,98.15625 0,196.3125 0,294.46875 5.15625,0 10.3125,0 15.46875,0 9.2103,-3.0297 9.84188,-17.78679 0,-20.7493 11.43797,-2.55199 9.34686,-18.62329 0,-21.40556 12.00517,-2.21539 8.90469,-18.46069 0,-21.03125 12.00517,-2.21539 8.90469,-18.46069 0,-21.03125 11.99786,-2.2339 8.91485,-18.487 0,-21.0625 12.00517,-2.21539 8.90469,-18.46069 0,-21.03125 12.00517,-2.21539 8.90469,-18.46069 0,-21.03125 11.95516,-2.24358 8.94357,-18.47367 0,-21.0625 12.00517,-2.21539 8.90469,-18.46069 0,-21.03125 12.00517,-2.21539 8.90469,-18.460692 0,-21.031247 11.95516,-2.243584 8.94357,-18.473666 0,-21.0625 12.00517,-2.215394 8.90469,-18.460696 0,-21.03125 12.00517,-2.215394 8.90469,-18.460696 0,-21.03125 12.41709,-1.768239 9.23691,-18.740861 0,-20.876393 -5.15625,0 -10.3125,0 -15.46875,0 z"
           style="fill:#666666;stroke:#000000;stroke-width:1.00200021" />
      </g>
      <path
         inkscape:connector-curvature="0"
         id="rect4036-7"
         d="M 215.62967,48.124947 C 265.04633,133.71712 314.463,219.3093 363.87966,304.90147 c 5.62917,-3.25 11.25834,-6.5 16.8875,-9.75 -1.72059,-5.85999 -3.71442,-3.43289 -7.31502,-1.04499 -7.05189,3.25795 -14.26942,-6.50386 -9.23736,-12.31207 1.15263,-3.27479 8.60176,-2.26123 5.45863,-5.85788 -1.1359,-4.6827 -3.28515,-1.12314 -5.89988,-0.0939 -7.04793,3.26007 -14.27113,-6.5037 -9.23736,-12.31207 1.01734,-2.96016 7.73317,-2.29414 4.74662,-5.59113 -1.31606,-5.00304 -3.203,-1.53255 -6.02488,-0.31039 -7.21176,3.22832 -14.31169,-6.67427 -9.17598,-12.45577 1.12596,-2.76723 7.70118,-2.24667 4.66961,-5.4745 -1.31104,-4.98414 -3.19807,-1.48884 -6.00926,-0.28333 -6.96161,3.15257 -14.07852,-6.16862 -9.46112,-12.07463 0.97744,-3.14761 7.8657,-2.53762 4.95475,-5.85563 -1.16965,-4.8393 -3.32049,-1.4748 -6.02488,-0.3104 -7.04793,3.26006 -14.27113,-6.5037 -9.23736,-12.31207 1.01309,-2.91947 7.77044,-2.34864 4.73099,-5.61819 -1.31104,-4.98414 -3.19806,-1.48885 -6.00925,-0.28334 -7.21176,3.22833 -14.31169,-6.67426 -9.17598,-12.45576 1.12596,-2.76723 7.70118,-2.24667 4.66961,-5.4745 -1.31104,-4.98414 -3.19807,-1.48885 -6.00926,-0.28333 -6.96161,3.15257 -14.07852,-6.16862 -9.46112,-12.07464 0.97744,-3.14761 7.8657,-2.53761 4.95475,-5.85563 -1.16965,-4.83929 -3.32049,-1.4748 -6.02488,-0.31039 -7.04793,3.26006 -14.27113,-6.50371 -9.23736,-12.31207 1.01309,-2.91946 7.77044,-2.34864 4.73099,-5.61819 -1.31104,-4.98414 -3.19806,-1.48884 -6.00925,-0.28333 -7.21176,3.22832 -14.31169,-6.67427 -9.17598,-12.45577 1.12596,-2.76723 7.70118,-2.24667 4.66961,-5.4745 -1.31104,-4.98414 -3.19807,-1.48885 -6.00926,-0.28333 -6.96161,3.15258 -14.07852,-6.16862 -9.46112,-12.07464 0.97744,-3.14761 7.8657,-2.53761 4.95475,-5.85563 -1.16965,-4.83929 -3.32049,-1.4748 -6.02488,-0.31039 -7.04793,3.26007 -14.27113,-6.50371 -9.23736,-12.312075 1.01309,-2.919467 7.77045,-2.348639 4.73099,-5.618189 -1.31104,-4.984142 -3.19806,-1.488843 -6.00925,-0.283332 -7.21177,3.228319 -14.31169,-6.674267 -9.17598,-12.455766 1.12596,-2.767231 7.70119,-2.24667 4.66961,-5.474499 -1.31104,-4.984142 -3.19806,-1.488843 -6.00926,-0.283332 -6.96161,3.152567 -14.07852,-6.168618 -9.46111,-12.074636 0.97743,-3.147605 7.86569,-2.537617 4.95474,-5.855628 -1.16907,-4.772497 -3.24293,-1.340524 -5.978,-0.229206 -7.25379,2.963019 -14.09195,-7.046922 -8.82416,-12.658891 1.58941,-2.74822 7.76312,-2.422713 3.81779,-6.137398 -3.54014,-3.26573 -10.11471,4.793221 -14.90329,6.186758 -1.40471,1.195861 -4.4339,1.192033 -2.03108,3.482051 z"
         style="fill:#666666;stroke:#000000;stroke-width:1.00831389" />
      <path
         inkscape:connector-curvature="0"
         id="rect4183"
         d="M 14.469235,46.133201 C 63.552567,131.14803 112.6359,216.16284 161.71923,301.17767 c 4.79923,-2.77084 9.59845,-5.54167 14.39768,-8.3125 -3.15389,-3.52134 -2.94359,-6.14125 1.81424,-7.54265 5.09932,-1.26442 3.87611,-4.22295 1.22783,-7.56333 -1.95803,-2.59674 -2.97536,-8.70419 -6.74144,-4.55317 -3.13072,1.86573 -6.65067,5.18428 -7.81577,-0.28566 -1.26792,-2.9477 -5.95606,-6.81185 -0.47849,-7.95211 3.18113,-1.77842 7.81505,-3.16751 3.66049,-6.91149 -2.14738,-1.89004 -2.89232,-9.01406 -6.0896,-6.98584 -2.78214,0.56488 -7.03119,6.60439 -8.46761,2.147 -0.49273,-2.73999 -6.35781,-6.9195 -2.91115,-8.60393 1.88026,-2.12696 9.23516,-2.787 6.09315,-6.25967 -1.81259,-3.1395 -3.62518,-6.279 -5.43777,-9.4185 -2.95262,1.20111 -6.53483,4.75193 -9.11944,4.57967 -1.78128,-3.08526 -3.56255,-6.17051 -5.34382,-9.25577 2.5165,-1.95648 7.3827,-3.28336 8.52583,-5.60783 -2.1094,-3.65359 -4.2188,-7.30717 -6.3282,-10.96076 -2.95261,1.20112 -6.53482,4.75193 -9.11944,4.57967 -1.78648,-3.09427 -3.57296,-6.18856 -5.35944,-9.28283 2.5165,-1.95648 7.3827,-3.28336 8.52583,-5.60783 -2.1094,-3.65359 -4.2188,-7.30717 -6.3282,-10.96076 -2.95261,1.20112 -6.53482,4.75193 -9.11944,4.57967 -1.78127,-3.08526 -3.56254,-6.17051 -5.34382,-9.25577 2.51651,-1.95648 7.38271,-3.28335 8.52583,-5.60783 -2.1094,-3.65359 -4.21879,-7.30716 -6.32819,-10.96075 -2.95262,1.20111 -6.53483,4.75193 -9.11944,4.57967 -1.78128,-3.08526 -3.56255,-6.1705 -5.343821,-9.25576 2.516501,-1.95648 7.382701,-3.28336 8.525831,-5.60783 -2.1094,-3.65359 -4.2188,-7.30717 -6.3282,-10.96076 -2.952611,1.20112 -6.534821,4.75193 -9.119436,4.57967 -1.781275,-3.08526 -3.562545,-6.17051 -5.34382,-9.25577 2.516504,-1.95648 7.382704,-3.28336 8.525829,-5.60783 -2.1094,-3.65359 -4.218795,-7.30717 -6.328195,-10.96075 -2.952614,1.20111 -6.534824,4.75193 -9.119439,4.57966 -1.781275,-3.08525 -3.562545,-6.1705 -5.34382,-9.25576 2.516504,-1.95648 7.382704,-3.28336 8.525829,-5.60783 -2.1094,-3.65359 -4.218794,-7.30717 -6.328192,-10.96075 -2.952612,1.20111 -6.534823,4.75193 -9.119439,4.57966 -1.786482,-3.09427 -3.572963,-6.188552 -5.359444,-9.282832 2.516505,-1.95647 7.382703,-3.28335 8.525827,-5.60783 -2.109398,-3.65358 -4.218796,-7.30717 -6.328194,-10.96075 -2.952612,1.20112 -6.534823,4.75193 -9.119439,4.57966 -1.781273,-3.08525 -3.562546,-6.17051 -5.343819,-9.25576 2.516506,-1.95648 7.382703,-3.28336 8.525828,-5.60783 -2.109398,-3.65359 -4.218796,-7.30717 -6.328194,-10.96076 -2.952613,1.20112 -6.534824,4.75193 -9.11944,4.57967 -1.781273,-3.08526 -3.562546,-6.17051 -5.343819,-9.25577 2.516506,-1.956476 7.382703,-3.283356 8.525828,-5.607831 -2.109398,-3.653584 -4.218796,-7.307169 -6.328194,-10.960753 -2.952613,1.201119 -6.534824,4.751929 -9.11944,4.579667 -1.351284,-5.030248 -4.235466,-4.339639 -7.7034,-1.47044 -3.085614,1.78148 -6.171228,3.56296 -9.256842,5.34444 z"
         style="fill:#666666;stroke:#000000" />
      <path
         inkscape:connector-curvature="0"
         id="rect4183-5"
         d="M 81.222238,49.301325 C 130.31078,134.32517 179.39933,219.34903 228.48787,304.37288 c 6.99136,-4.03646 13.98271,-8.07291 20.97406,-12.10937 -1.1643,-3.91386 -6.05428,-1.67954 -9.1229,-2.27634 -2.99492,-0.23464 -9.81141,1.75008 -5.30809,-2.83911 2.07324,-3.23745 3.88118,-6.62735 5.69662,-10.01293 -1.12582,-4.16309 -6.03301,-2.01883 -9.24839,-2.59992 -2.49026,-0.52772 -10.35462,2.06555 -6.20942,-2.31566 2.27424,-3.55998 4.27662,-7.27631 6.27031,-10.99764 -1.59291,-3.3527 -6.62831,-1.04429 -9.72508,-1.71308 -3.66585,0.15501 -8.89075,1.21542 -4.40673,-3.36255 1.76438,-3.32195 4.6962,-6.86894 5.24145,-10.32292 -2.4069,-2.09662 -7.02483,-0.64921 -10.33477,-1.03783 -4.432,0.59993 -7.63445,0.48582 -3.50539,-3.88602 1.70904,-3.27073 4.62528,-6.76711 5.13704,-10.1504 -2.67943,-1.30571 -6.77377,-0.40387 -9.98785,-0.62103 -4.43535,0.61906 -7.57678,0.48098 -3.4835,-3.89069 1.94678,-3.08689 3.60337,-6.33986 5.3617,-9.5346 -1.6124,-3.24788 -6.59581,-0.98215 -9.65105,-1.6448 -3.66487,0.16796 -8.84393,1.21866 -4.37055,-3.35772 1.73618,-3.30902 4.67813,-6.82887 5.20937,-10.26071 -2.1056,-2.50817 -6.89605,-0.66479 -10.06403,-1.19048 -4.43535,0.61907 -7.57677,0.48098 -3.4835,-3.89069 1.63924,-3.17813 4.46324,-6.5539 4.93816,-9.8307 -1.95607,-2.50366 -6.54956,-0.73167 -9.59932,-1.24827 -3.66548,0.15339 -8.86033,1.19495 -4.38599,-3.3789 2.04479,-3.19889 3.78211,-6.5741 5.59441,-9.90629 -1.48559,-3.36352 -6.35872,-1.14202 -9.38828,-1.80051 -2.99043,-0.23798 -9.78882,1.73097 -5.28097,-2.85262 2.18126,-3.38185 4.03008,-6.95361 5.91925,-10.50233 -1.57382,-3.30497 -6.53845,-1.02384 -9.59711,-1.68193 -3.66548,0.15339 -8.86033,1.19496 -4.38599,-3.3789 1.71886,-3.28837 4.66234,-6.78967 5.17086,-10.2024 -1.91637,-2.58174 -6.53262,-0.77188 -9.58787,-1.29095 -3.66558,0.15332 -8.86209,1.19388 -4.37958,-3.37501 2.04685,-3.18125 3.775,-6.54544 5.57656,-9.86749 -1.61871,-3.33378 -6.67784,-0.99392 -9.7793,-1.685 -3.66557,0.15332 -8.86209,1.19388 -4.37957,-3.37501 2.04577,-3.17178 3.75992,-6.53341 5.54949,-9.85187 -1.59298,-3.27644 -6.56717,-1.00322 -9.62408,-1.66314 -3.66585,0.15501 -8.89074,1.21541 -4.40673,-3.36256 1.74705,-3.30132 4.68049,-6.82969 5.20295,-10.264596 -1.97932,-2.47451 -6.58044,-0.71023 -9.63,-1.19214 -4.432,0.59994 -7.63445,0.48582 -3.50539,-3.88601 1.84558,-2.87913 3.41036,-5.92019 5.057,-8.91403 -1.37902,-3.673524 -6.31003,-1.48621 -9.44772,-2.09096 -2.991,-0.23833 -9.78611,1.73261 -5.28646,-2.855955 2.14721,-3.357948 3.99361,-6.887917 5.8748,-10.397982 -1.55837,-3.250183 -6.46092,-1.044339 -9.48439,-1.665641 -3.66508,0.16969 -8.87104,1.241026 -4.40295,-3.348429 1.68631,-3.273866 4.65605,-6.748139 5.13761,-10.140907 -2.42097,-2.166064 -7.12112,-0.643694 -10.46669,-1.040128 -5.194629,1.041449 -6.079572,-0.419977 -2.585033,-4.424812 1.516816,-2.970137 4.222993,-6.143384 4.583013,-9.203386 -2.733586,0.07249 -6.349559,3.438099 -9.426574,4.792293 -3.943002,2.276493 -7.885999,4.552983 -11.829004,6.829478 z"
         style="fill:#666666;stroke:#000000" />
      <path
         inkscape:connector-curvature="0"
         id="path4674"
         d="m 281.48124,51.783848 c 49.125,85.086992 98.25,170.173982 147.375,255.260982 8.66025,-5 17.32051,-10 25.98076,-15 -2.58593,-4.87388 8.69724,-11.63718 0.87364,-17.8373 -7.85915,-8.84465 -25.00925,7.22316 -27.82764,-9.68974 0.30802,-9.79471 18.85589,-19.15556 4.25609,-28.17502 -8.33032,-2.48474 -22.42459,7.07512 -24.75609,-7.33202 0.30802,-9.79471 18.85589,-19.15556 4.25609,-28.17502 -8.33032,-2.48474 -22.42459,7.07512 -24.75609,-7.33202 0.30802,-9.79471 18.85589,-19.15556 4.25609,-28.17502 -8.33032,-2.48473 -22.42459,7.07512 -24.75609,-7.33202 0.30802,-9.79469 18.85589,-19.15556 4.25609,-28.17502 -8.33032,-2.48474 -22.42459,7.07513 -24.75609,-7.33202 0.30803,-9.7947 18.8559,-19.15555 4.25609,-28.17502 -8.33032,-2.484737 -22.42459,7.07512 -24.75609,-7.332016 0.30803,-9.79471 18.85589,-19.155561 4.25609,-28.175023 -8.33032,-2.484742 -22.42459,7.075123 -24.75609,-7.332019 -1.1486,-5.1453 9.55107,-13.55972 1.02763,-13.796018 -8.14313,4.70144 -16.28626,9.402875 -24.42939,14.104314 z"
         style="fill:#666666;stroke:#000000" />
    </g>
    <text
       xml:space="preserve"
       style="font-size:40px;font-style:normal;font-weight:normal;line-height:125%;letter-spacing:0px;word-spacing:0px;fill:#000000;fill-opacity:1;stroke:none;font-family:Sans"
       x="171.39348"
       y="312.99811"
       id="text4689"
       sodipodi:linespacing="125%"><tspan
         sodipodi:role="line"
         id="tspan4691"
         x="171.39348"
         y="312.99811"
         style="font-size:18px">a)</tspan></text>
    <text
       xml:space="preserve"
       style="font-size:40px;font-style:normal;font-weight:normal;line-height:125%;letter-spacing:0px;word-spacing:0px;fill:#000000;fill-opacity:1;stroke:none;font-family:Sans"
       x="241.72505"
       y="312.99811"
       id="text4689-7"
       sodipodi:linespacing="125%"><tspan
         sodipodi:role="line"
         id="tspan4691-6"
         x="241.72505"
         y="312.99811"
         style="font-size:18px">b)</tspan></text>
    <text
       xml:space="preserve"
       style="font-size:40px;font-style:normal;font-weight:normal;line-height:125%;letter-spacing:0px;word-spacing:0px;fill:#000000;fill-opacity:1;stroke:none;font-family:Sans"
       x="308.19308"
       y="312.99811"
       id="text4689-9"
       sodipodi:linespacing="125%"><tspan
         sodipodi:role="line"
         id="tspan4691-1"
         x="308.19308"
         y="312.99811"
         style="font-size:18px">c)</tspan></text>
    <text
       xml:space="preserve"
       style="font-size:40px;font-style:normal;font-weight:normal;line-height:125%;letter-spacing:0px;word-spacing:0px;fill:#000000;fill-opacity:1;stroke:none;font-family:Sans"
       x="371.12561"
       y="312.99811"
       id="text4689-2"
       sodipodi:linespacing="125%"><tspan
         sodipodi:role="line"
         id="tspan4691-9"
         x="371.12561"
         y="312.99811"
         style="font-size:18px">d)</tspan></text>
    <text
       xml:space="preserve"
       style="font-size:40px;font-style:normal;font-weight:normal;line-height:125%;letter-spacing:0px;word-spacing:0px;fill:#000000;fill-opacity:1;stroke:none;font-family:Sans"
       x="448.90735"
       y="312.99811"
       id="text4689-77"
       sodipodi:linespacing="125%"><tspan
         sodipodi:role="line"
         id="tspan4691-0"
         x="448.90735"
         y="312.99811"
         style="font-size:18px">e)</tspan></text>
  </g>
</svg>
